<svg version="1" xmlns="http://www.w3.org/2000/svg" width="933.333" height="933.333" viewBox="0 0 700.000000 700.000000"><path d="M18 11.9c-3 .8-7 6.5-7 9.8 0 1.3.5 3.4 1.1 4.6.6 1.2 73.4 74.5 161.8 162.9L334.5 350 228 456.5C169.4 515.1 121.2 563 120.9 563c-.3 0-.5-81.8-.5-181.8.1-99.9-.2-183.4-.5-185.6-.4-2.1-1.8-4.9-3.1-6.3-4.9-4.9-14.4-3.2-17 3-1.1 2.6-1.3 38-1.3 198.4V586l-43.2 43.2c-37.1 37.2-43.2 43.8-43.8 46.9-1.1 5.8 2.8 11.5 8.5 12.6 5.3 1 7.5-.9 50.8-44l43.2-43.2 184.8-.1c130.4 0 185.5-.4 187.3-1.1 2.9-1.2 5.9-6.7 5.9-10.6 0-3.5-4.4-8.5-8.3-9.4-1.8-.5-80.7-.8-175.5-.7H135.9l107-107L350 365.5l161.2 161.2c88.7 88.6 162.3 161.4 163.5 161.7 7.6 2.3 15.2-4.5 13.8-12.3-.5-3.1-6.6-9.6-43.8-46.9L601.5 586l-.1-235.8-.1-235.7L644.7 71c23.8-24 43.3-44 43.4-44.5 0-.6.3-2.2.5-3.7 1.1-6.5-5.6-12.5-12.5-11.3-3.3.5-8.9 5.8-46.9 43.8L586 98.5H114L71.2 55.8C47.7 32.4 27.5 12.7 26.3 12.1c-2.4-1.2-4.5-1.3-8.3-.2zm439.1 215.5L350 334.5 243.5 228C184.9 169.4 137 121.2 137 120.9c0-.3 96.1-.5 213.6-.5h213.5l-107 107zm122.5 122.7v214l-107-107L365.5 350l107-107 107-107c.1 0 .1 96.3.1 214.1z"/></svg>